<svg width="261" height="104" viewBox="0 0 261 104" fill="none" xmlns="http://www.w3.org/2000/svg">
<rect width="261" height="104" rx="15" fill="#3252C7"/>
<path d="M19.98 52.2C19.98 50.2773 20.4093 48.56 21.268 47.048C22.1453 45.5173 23.3307 44.332 24.824 43.492C26.336 42.6333 28.0253 42.204 29.892 42.204C32.076 42.204 33.9893 42.764 35.632 43.884C37.2747 45.004 38.4227 46.5533 39.076 48.532H34.568C34.12 47.5987 33.4853 46.8987 32.664 46.432C31.8613 45.9653 30.928 45.732 29.864 45.732C28.7253 45.732 27.708 46.0027 26.812 46.544C25.9347 47.0667 25.244 47.8133 24.74 48.784C24.2547 49.7547 24.012 50.8933 24.012 52.2C24.012 53.488 24.2547 54.6267 24.74 55.616C25.244 56.5867 25.9347 57.3427 26.812 57.884C27.708 58.4067 28.7253 58.668 29.864 58.668C30.928 58.668 31.8613 58.4347 32.664 57.968C33.4853 57.4827 34.12 56.7733 34.568 55.84H39.076C38.4227 57.8373 37.2747 59.396 35.632 60.516C34.008 61.6173 32.0947 62.168 29.892 62.168C28.0253 62.168 26.336 61.748 24.824 60.908C23.3307 60.0493 22.1453 58.864 21.268 57.352C20.4093 55.84 19.98 54.1227 19.98 52.2ZM51.1602 46.264C52.3362 46.264 53.3815 46.5253 54.2962 47.048C55.2109 47.552 55.9202 48.308 56.4242 49.316C56.9469 50.3053 57.2082 51.5 57.2082 52.9V62H53.2882V53.432C53.2882 52.2 52.9802 51.2573 52.3642 50.604C51.7482 49.932 50.9082 49.596 49.8442 49.596C48.7615 49.596 47.9029 49.932 47.2682 50.604C46.6522 51.2573 46.3442 52.2 46.3442 53.432V62H42.4242V41.28H46.3442V48.42C46.8482 47.748 47.5202 47.2253 48.3602 46.852C49.2002 46.46 50.1335 46.264 51.1602 46.264ZM75.3559 53.908C75.3559 54.468 75.3186 54.972 75.2439 55.42H63.9039C63.9972 56.54 64.3892 57.4173 65.0799 58.052C65.7706 58.6867 66.6199 59.004 67.6279 59.004C69.0839 59.004 70.1199 58.3787 70.7359 57.128H74.9639C74.5159 58.6213 73.6572 59.8533 72.3879 60.824C71.1186 61.776 69.5599 62.252 67.7119 62.252C66.2186 62.252 64.8746 61.9253 63.6799 61.272C62.5039 60.6 61.5799 59.6573 60.9079 58.444C60.2546 57.2307 59.9279 55.8307 59.9279 54.244C59.9279 52.6387 60.2546 51.2293 60.9079 50.016C61.5612 48.8027 62.4759 47.8693 63.6519 47.216C64.8279 46.5627 66.1812 46.236 67.7119 46.236C69.1866 46.236 70.5026 46.5533 71.6599 47.188C72.8359 47.8227 73.7412 48.728 74.3759 49.904C75.0292 51.0613 75.3559 52.396 75.3559 53.908ZM71.2959 52.788C71.2772 51.78 70.9132 50.9773 70.2039 50.38C69.4946 49.764 68.6266 49.456 67.5999 49.456C66.6292 49.456 65.8079 49.7547 65.1359 50.352C64.4826 50.9307 64.0812 51.7427 63.9319 52.788H71.2959ZM77.2092 54.244C77.2092 52.6387 77.5358 51.2387 78.1892 50.044C78.8425 48.8307 79.7478 47.8973 80.9052 47.244C82.0625 46.572 83.3878 46.236 84.8812 46.236C86.8038 46.236 88.3905 46.7213 89.6412 47.692C90.9105 48.644 91.7598 49.988 92.1892 51.724H87.9612C87.7372 51.052 87.3545 50.5293 86.8132 50.156C86.2905 49.764 85.6372 49.568 84.8532 49.568C83.7332 49.568 82.8465 49.9787 82.1932 50.8C81.5398 51.6027 81.2132 52.7507 81.2132 54.244C81.2132 55.7187 81.5398 56.8667 82.1932 57.688C82.8465 58.4907 83.7332 58.892 84.8532 58.892C86.4398 58.892 87.4758 58.1827 87.9612 56.764H92.1892C91.7598 58.444 90.9105 59.7787 89.6412 60.768C88.3718 61.7573 86.7852 62.252 84.8812 62.252C83.3878 62.252 82.0625 61.9253 80.9052 61.272C79.7478 60.6 78.8425 59.6667 78.1892 58.472C77.5358 57.2587 77.2092 55.8493 77.2092 54.244ZM104.245 62L98.9809 55.392V62H95.0609V41.28H98.9809V53.068L104.189 46.488H109.285L102.453 54.272L109.341 62H104.245ZM124.916 42.456C126.97 42.456 128.771 42.8573 130.32 43.66C131.888 44.4627 133.092 45.6107 133.932 47.104C134.791 48.5787 135.22 50.296 135.22 52.256C135.22 54.216 134.791 55.9333 133.932 57.408C133.092 58.864 131.888 59.9933 130.32 60.796C128.771 61.5987 126.97 62 124.916 62H118.084V42.456H124.916ZM124.776 58.668C126.83 58.668 128.416 58.108 129.536 56.988C130.656 55.868 131.216 54.2907 131.216 52.256C131.216 50.2213 130.656 48.6347 129.536 47.496C128.416 46.3387 126.83 45.76 124.776 45.76H122.004V58.668H124.776ZM140.143 44.64C139.452 44.64 138.873 44.4253 138.407 43.996C137.959 43.548 137.735 42.9973 137.735 42.344C137.735 41.6907 137.959 41.1493 138.407 40.72C138.873 40.272 139.452 40.048 140.143 40.048C140.833 40.048 141.403 40.272 141.851 40.72C142.317 41.1493 142.551 41.6907 142.551 42.344C142.551 42.9973 142.317 43.548 141.851 43.996C141.403 44.4253 140.833 44.64 140.143 44.64ZM142.075 46.488V62H138.155V46.488H142.075ZM144.94 54.188C144.94 52.62 145.248 51.2293 145.864 50.016C146.498 48.8027 147.348 47.8693 148.412 47.216C149.494 46.5627 150.698 46.236 152.024 46.236C153.181 46.236 154.189 46.4693 155.048 46.936C155.925 47.4027 156.625 47.9907 157.148 48.7V46.488H161.096V62H157.148V59.732C156.644 60.46 155.944 61.0667 155.048 61.552C154.17 62.0187 153.153 62.252 151.996 62.252C150.689 62.252 149.494 61.916 148.412 61.244C147.348 60.572 146.498 59.6293 145.864 58.416C145.248 57.184 144.94 55.7747 144.94 54.188ZM157.148 54.244C157.148 53.292 156.961 52.48 156.588 51.808C156.214 51.1173 155.71 50.5947 155.076 50.24C154.441 49.8667 153.76 49.68 153.032 49.68C152.304 49.68 151.632 49.8573 151.016 50.212C150.4 50.5667 149.896 51.0893 149.504 51.78C149.13 52.452 148.944 53.2547 148.944 54.188C148.944 55.1213 149.13 55.9427 149.504 56.652C149.896 57.3427 150.4 57.8747 151.016 58.248C151.65 58.6213 152.322 58.808 153.032 58.808C153.76 58.808 154.441 58.6307 155.076 58.276C155.71 57.9027 156.214 57.38 156.588 56.708C156.961 56.0173 157.148 55.196 157.148 54.244ZM168.844 48.756C169.348 48.0093 170.039 47.4027 170.916 46.936C171.812 46.4693 172.83 46.236 173.968 46.236C175.294 46.236 176.488 46.5627 177.552 47.216C178.635 47.8693 179.484 48.8027 180.1 50.016C180.735 51.2107 181.052 52.6013 181.052 54.188C181.052 55.7747 180.735 57.184 180.1 58.416C179.484 59.6293 178.635 60.572 177.552 61.244C176.488 61.916 175.294 62.252 173.968 62.252C172.811 62.252 171.794 62.028 170.916 61.58C170.058 61.1133 169.367 60.516 168.844 59.788V62H164.924V41.28H168.844V48.756ZM177.048 54.188C177.048 53.2547 176.852 52.452 176.46 51.78C176.087 51.0893 175.583 50.5667 174.948 50.212C174.332 49.8573 173.66 49.68 172.932 49.68C172.223 49.68 171.551 49.8667 170.916 50.24C170.3 50.5947 169.796 51.1173 169.404 51.808C169.031 52.4987 168.844 53.3107 168.844 54.244C168.844 55.1773 169.031 55.9893 169.404 56.68C169.796 57.3707 170.3 57.9027 170.916 58.276C171.551 58.6307 172.223 58.808 172.932 58.808C173.66 58.808 174.332 58.6213 174.948 58.248C175.583 57.8747 176.087 57.3427 176.46 56.652C176.852 55.9613 177.048 55.14 177.048 54.188ZM198.321 53.908C198.321 54.468 198.283 54.972 198.209 55.42H186.869C186.962 56.54 187.354 57.4173 188.045 58.052C188.735 58.6867 189.585 59.004 190.593 59.004C192.049 59.004 193.085 58.3787 193.701 57.128H197.929C197.481 58.6213 196.622 59.8533 195.353 60.824C194.083 61.776 192.525 62.252 190.677 62.252C189.183 62.252 187.839 61.9253 186.645 61.272C185.469 60.6 184.545 59.6573 183.873 58.444C183.219 57.2307 182.893 55.8307 182.893 54.244C182.893 52.6387 183.219 51.2293 183.873 50.016C184.526 48.8027 185.441 47.8693 186.617 47.216C187.793 46.5627 189.146 46.236 190.677 46.236C192.151 46.236 193.467 46.5533 194.625 47.188C195.801 47.8227 196.706 48.728 197.341 49.904C197.994 51.0613 198.321 52.396 198.321 53.908ZM194.261 52.788C194.242 51.78 193.878 50.9773 193.169 50.38C192.459 49.764 191.591 49.456 190.565 49.456C189.594 49.456 188.773 49.7547 188.101 50.352C187.447 50.9307 187.046 51.7427 186.897 52.788H194.261ZM205.746 49.708V57.212C205.746 57.7347 205.867 58.1173 206.11 58.36C206.371 58.584 206.801 58.696 207.398 58.696H209.218V62H206.754C203.45 62 201.798 60.3947 201.798 57.184V49.708H199.95V46.488H201.798V42.652H205.746V46.488H209.218V49.708H205.746ZM226.457 53.908C226.457 54.468 226.42 54.972 226.345 55.42H215.005C215.099 56.54 215.491 57.4173 216.181 58.052C216.872 58.6867 217.721 59.004 218.729 59.004C220.185 59.004 221.221 58.3787 221.837 57.128H226.065C225.617 58.6213 224.759 59.8533 223.489 60.824C222.22 61.776 220.661 62.252 218.813 62.252C217.32 62.252 215.976 61.9253 214.781 61.272C213.605 60.6 212.681 59.6573 212.009 58.444C211.356 57.2307 211.029 55.8307 211.029 54.244C211.029 52.6387 211.356 51.2293 212.009 50.016C212.663 48.8027 213.577 47.8693 214.753 47.216C215.929 46.5627 217.283 46.236 218.813 46.236C220.288 46.236 221.604 46.5533 222.761 47.188C223.937 47.8227 224.843 48.728 225.477 49.904C226.131 51.0613 226.457 52.396 226.457 53.908ZM222.397 52.788C222.379 51.78 222.015 50.9773 221.305 50.38C220.596 49.764 219.728 49.456 218.701 49.456C217.731 49.456 216.909 49.7547 216.237 50.352C215.584 50.9307 215.183 51.7427 215.033 52.788H222.397ZM235.255 62.252C233.985 62.252 232.847 62.028 231.839 61.58C230.831 61.1133 230.028 60.488 229.431 59.704C228.852 58.92 228.535 58.052 228.479 57.1H232.427C232.501 57.6973 232.791 58.192 233.295 58.584C233.817 58.976 234.461 59.172 235.227 59.172C235.973 59.172 236.552 59.0227 236.963 58.724C237.392 58.4253 237.607 58.0427 237.607 57.576C237.607 57.072 237.345 56.6987 236.823 56.456C236.319 56.1947 235.507 55.9147 234.387 55.616C233.229 55.336 232.277 55.0467 231.531 54.748C230.803 54.4493 230.168 53.992 229.627 53.376C229.104 52.76 228.843 51.9293 228.843 50.884C228.843 50.0253 229.085 49.2413 229.571 48.532C230.075 47.8227 230.784 47.2627 231.699 46.852C232.632 46.4413 233.724 46.236 234.975 46.236C236.823 46.236 238.297 46.7027 239.399 47.636C240.5 48.5507 241.107 49.792 241.219 51.36H237.467C237.411 50.744 237.149 50.2587 236.683 49.904C236.235 49.5307 235.628 49.344 234.863 49.344C234.153 49.344 233.603 49.4747 233.211 49.736C232.837 49.9973 232.651 50.3613 232.651 50.828C232.651 51.3507 232.912 51.752 233.435 52.032C233.957 52.2933 234.769 52.564 235.871 52.844C236.991 53.124 237.915 53.4133 238.643 53.712C239.371 54.0107 239.996 54.4773 240.519 55.112C241.06 55.728 241.34 56.5493 241.359 57.576C241.359 58.472 241.107 59.2747 240.603 59.984C240.117 60.6933 239.408 61.2533 238.475 61.664C237.56 62.056 236.487 62.252 235.255 62.252Z" fill="white"/>
</svg>
